<svg width="512" height="512" viewBox="0 0 512 512" fill="none" xmlns="http://www.w3.org/2000/svg">
<mask id="path-1-outside-1_249_2" maskUnits="userSpaceOnUse" x="42.9014" y="25.1421" width="426" height="461" fill="black">
<rect fill="white" x="42.9014" y="25.1421" width="426" height="461"/>
<path d="M72.5027 158.828V142.786H55.9014V54.5568H72.5027V38.1421H127.716V54.5568H144.504V93.915H127.716V103.055H144.504V142.786H127.716V158.828H72.5027ZM77.9121 135.698H122.307V109.957H88.9174V87.0133H122.307V61.4585H77.9121V135.698Z"/>
<path d="M163.47 158.828V135.698H180.071V61.4585H163.47V38.1421H218.87V61.4585H202.082V135.698H218.87V158.828H163.47Z"/>
<path d="M270.902 158.828V61.4585H259.897V77.6867H237.886V54.5568H254.487V38.1421H309.701V54.5568H326.488V77.6867H304.291V61.4585H293.286V158.828H270.902Z"/>
<path d="M356.409 158.828V142.786H339.808V54.5568H356.409V38.1421H411.622V54.5568H428.41V77.6867H406.213V61.4585H361.819V87.0133H395.208V109.957H361.819V135.698H406.213V119.47H428.41V142.786H411.622V158.828H356.409Z"/>
<path d="M88.9174 316.343V218.974H77.9121V235.202H55.9014V212.072H72.5027V195.658H127.716V212.072H144.504V235.202H122.307V218.974H111.301V316.343H88.9174Z"/>
<path d="M157.823 316.343V195.658H179.834V244.529H190.839V228.301H213.223V244.529H224.228V195.658H246.426V316.343H224.228V267.472H179.834V316.343H157.823Z"/>
<path d="M281.993 316.343V300.302H265.392V212.072H281.993V195.658H337.207V212.072H353.994V235.202H331.797V218.974H287.403V244.529H320.792V267.472H287.403V293.214H331.797V276.985H353.994V300.302H337.207V316.343H281.993Z"/>
<path d="M72.5027 473.859V457.817H55.9014V369.588H72.5027V353.173H127.716V369.588H144.504V408.946H127.716V418.086H144.504V457.817H127.716V473.859H72.5027ZM77.9121 450.729H122.307V424.988H88.9174V402.045H122.307V376.49H77.9121V450.729Z"/>
<path d="M180.071 473.859V457.817H163.47V369.588H180.071V353.173H235.285V369.588H252.073V392.718H229.875V376.49H185.481V402.045H218.87V424.988H185.481V450.729H229.875V434.501H252.073V457.817H235.285V473.859H180.071Z"/>
<path d="M271.039 473.859V385.816H287.64V369.588H304.055V353.173H326.439V369.588H342.854V385.816H359.641V473.859H337.444V441.403H293.05V473.859H271.039ZM293.05 418.086H337.444V392.718H320.843V376.49H309.651V392.718H293.05V418.086Z"/>
<path d="M400.512 473.859V376.49H389.507V392.718H367.496V369.588H384.097V353.173H439.311V369.588H456.099V392.718H433.901V376.49H422.896V473.859H400.512Z"/>
</mask>
<path d="M72.5027 158.828V142.786H55.9014V54.5568H72.5027V38.1421H127.716V54.5568H144.504V93.915H127.716V103.055H144.504V142.786H127.716V158.828H72.5027ZM77.9121 135.698H122.307V109.957H88.9174V87.0133H122.307V61.4585H77.9121V135.698Z" fill="black"/>
<path d="M163.47 158.828V135.698H180.071V61.4585H163.47V38.1421H218.87V61.4585H202.082V135.698H218.87V158.828H163.47Z" fill="black"/>
<path d="M270.902 158.828V61.4585H259.897V77.6867H237.886V54.5568H254.487V38.1421H309.701V54.5568H326.488V77.6867H304.291V61.4585H293.286V158.828H270.902Z" fill="black"/>
<path d="M356.409 158.828V142.786H339.808V54.5568H356.409V38.1421H411.622V54.5568H428.41V77.6867H406.213V61.4585H361.819V87.0133H395.208V109.957H361.819V135.698H406.213V119.47H428.41V142.786H411.622V158.828H356.409Z" fill="black"/>
<path d="M88.9174 316.343V218.974H77.9121V235.202H55.9014V212.072H72.5027V195.658H127.716V212.072H144.504V235.202H122.307V218.974H111.301V316.343H88.9174Z" fill="black"/>
<path d="M157.823 316.343V195.658H179.834V244.529H190.839V228.301H213.223V244.529H224.228V195.658H246.426V316.343H224.228V267.472H179.834V316.343H157.823Z" fill="black"/>
<path d="M281.993 316.343V300.302H265.392V212.072H281.993V195.658H337.207V212.072H353.994V235.202H331.797V218.974H287.403V244.529H320.792V267.472H287.403V293.214H331.797V276.985H353.994V300.302H337.207V316.343H281.993Z" fill="black"/>
<path d="M72.5027 473.859V457.817H55.9014V369.588H72.5027V353.173H127.716V369.588H144.504V408.946H127.716V418.086H144.504V457.817H127.716V473.859H72.5027ZM77.9121 450.729H122.307V424.988H88.9174V402.045H122.307V376.49H77.9121V450.729Z" fill="black"/>
<path d="M180.071 473.859V457.817H163.47V369.588H180.071V353.173H235.285V369.588H252.073V392.718H229.875V376.49H185.481V402.045H218.87V424.988H185.481V450.729H229.875V434.501H252.073V457.817H235.285V473.859H180.071Z" fill="black"/>
<path d="M271.039 473.859V385.816H287.64V369.588H304.055V353.173H326.439V369.588H342.854V385.816H359.641V473.859H337.444V441.403H293.05V473.859H271.039ZM293.05 418.086H337.444V392.718H320.843V376.49H309.651V392.718H293.05V418.086Z" fill="black"/>
<path d="M400.512 473.859V376.49H389.507V392.718H367.496V369.588H384.097V353.173H439.311V369.588H456.099V392.718H433.901V376.49H422.896V473.859H400.512Z" fill="black"/>
<path d="M72.5027 158.828V142.786H55.9014V54.5568H72.5027V38.1421H127.716V54.5568H144.504V93.915H127.716V103.055H144.504V142.786H127.716V158.828H72.5027ZM77.9121 135.698H122.307V109.957H88.9174V87.0133H122.307V61.4585H77.9121V135.698Z" stroke="black" stroke-width="24.3581" mask="url(#path-1-outside-1_249_2)"/>
<path d="M163.47 158.828V135.698H180.071V61.4585H163.47V38.1421H218.87V61.4585H202.082V135.698H218.87V158.828H163.47Z" stroke="black" stroke-width="24.3581" mask="url(#path-1-outside-1_249_2)"/>
<path d="M270.902 158.828V61.4585H259.897V77.6867H237.886V54.5568H254.487V38.1421H309.701V54.5568H326.488V77.6867H304.291V61.4585H293.286V158.828H270.902Z" stroke="black" stroke-width="24.3581" mask="url(#path-1-outside-1_249_2)"/>
<path d="M356.409 158.828V142.786H339.808V54.5568H356.409V38.1421H411.622V54.5568H428.41V77.6867H406.213V61.4585H361.819V87.0133H395.208V109.957H361.819V135.698H406.213V119.47H428.41V142.786H411.622V158.828H356.409Z" stroke="black" stroke-width="24.3581" mask="url(#path-1-outside-1_249_2)"/>
<path d="M88.9174 316.343V218.974H77.9121V235.202H55.9014V212.072H72.5027V195.658H127.716V212.072H144.504V235.202H122.307V218.974H111.301V316.343H88.9174Z" stroke="black" stroke-width="24.3581" mask="url(#path-1-outside-1_249_2)"/>
<path d="M157.823 316.343V195.658H179.834V244.529H190.839V228.301H213.223V244.529H224.228V195.658H246.426V316.343H224.228V267.472H179.834V316.343H157.823Z" stroke="black" stroke-width="24.3581" mask="url(#path-1-outside-1_249_2)"/>
<path d="M281.993 316.343V300.302H265.392V212.072H281.993V195.658H337.207V212.072H353.994V235.202H331.797V218.974H287.403V244.529H320.792V267.472H287.403V293.214H331.797V276.985H353.994V300.302H337.207V316.343H281.993Z" stroke="black" stroke-width="24.3581" mask="url(#path-1-outside-1_249_2)"/>
<path d="M72.5027 473.859V457.817H55.9014V369.588H72.5027V353.173H127.716V369.588H144.504V408.946H127.716V418.086H144.504V457.817H127.716V473.859H72.5027ZM77.9121 450.729H122.307V424.988H88.9174V402.045H122.307V376.49H77.9121V450.729Z" stroke="black" stroke-width="24.3581" mask="url(#path-1-outside-1_249_2)"/>
<path d="M180.071 473.859V457.817H163.47V369.588H180.071V353.173H235.285V369.588H252.073V392.718H229.875V376.49H185.481V402.045H218.87V424.988H185.481V450.729H229.875V434.501H252.073V457.817H235.285V473.859H180.071Z" stroke="black" stroke-width="24.3581" mask="url(#path-1-outside-1_249_2)"/>
<path d="M271.039 473.859V385.816H287.64V369.588H304.055V353.173H326.439V369.588H342.854V385.816H359.641V473.859H337.444V441.403H293.05V473.859H271.039ZM293.05 418.086H337.444V392.718H320.843V376.49H309.651V392.718H293.05V418.086Z" stroke="black" stroke-width="24.3581" mask="url(#path-1-outside-1_249_2)"/>
<path d="M400.512 473.859V376.49H389.507V392.718H367.496V369.588H384.097V353.173H439.311V369.588H456.099V392.718H433.901V376.49H422.896V473.859H400.512Z" stroke="black" stroke-width="24.3581" mask="url(#path-1-outside-1_249_2)"/>
<path d="M72.5027 158.828V142.786H55.9014V54.5568H72.5027V38.1421H127.716V54.5568H144.504V93.915H127.716V103.055H144.504V142.786H127.716V158.828H72.5027ZM77.9121 135.698H122.307V109.957H88.9174V87.0133H122.307V61.4585H77.9121V135.698Z" fill="white"/>
<path d="M163.47 158.828V135.698H180.071V61.4585H163.47V38.1421H218.87V61.4585H202.082V135.698H218.87V158.828H163.47Z" fill="white"/>
<path d="M270.902 158.828V61.4585H259.897V77.6867H237.886V54.5568H254.487V38.1421H309.701V54.5568H326.488V77.6867H304.291V61.4585H293.286V158.828H270.902Z" fill="white"/>
<path d="M356.409 158.828V142.786H339.808V54.5568H356.409V38.1421H411.622V54.5568H428.41V77.6867H406.213V61.4585H361.819V87.0133H395.208V109.957H361.819V135.698H406.213V119.47H428.41V142.786H411.622V158.828H356.409Z" fill="white"/>
<path d="M88.9174 316.343V218.974H77.9121V235.202H55.9014V212.072H72.5027V195.658H127.716V212.072H144.504V235.202H122.307V218.974H111.301V316.343H88.9174Z" fill="white"/>
<path d="M157.823 316.343V195.658H179.834V244.529H190.839V228.301H213.223V244.529H224.228V195.658H246.426V316.343H224.228V267.472H179.834V316.343H157.823Z" fill="white"/>
<path d="M281.993 316.343V300.302H265.392V212.072H281.993V195.658H337.207V212.072H353.994V235.202H331.797V218.974H287.403V244.529H320.792V267.472H287.403V293.214H331.797V276.985H353.994V300.302H337.207V316.343H281.993Z" fill="white"/>
<path d="M72.5027 473.859V457.817H55.9014V369.588H72.5027V353.173H127.716V369.588H144.504V408.946H127.716V418.086H144.504V457.817H127.716V473.859H72.5027ZM77.9121 450.729H122.307V424.988H88.9174V402.045H122.307V376.49H77.9121V450.729Z" fill="white"/>
<path d="M180.071 473.859V457.817H163.47V369.588H180.071V353.173H235.285V369.588H252.073V392.718H229.875V376.49H185.481V402.045H218.87V424.988H185.481V450.729H229.875V434.501H252.073V457.817H235.285V473.859H180.071Z" fill="white"/>
<path d="M271.039 473.859V385.816H287.64V369.588H304.055V353.173H326.439V369.588H342.854V385.816H359.641V473.859H337.444V441.403H293.05V473.859H271.039ZM293.05 418.086H337.444V392.718H320.843V376.49H309.651V392.718H293.05V418.086Z" fill="white"/>
<path d="M400.512 473.859V376.49H389.507V392.718H367.496V369.588H384.097V353.173H439.311V369.588H456.099V392.718H433.901V376.49H422.896V473.859H400.512Z" fill="white"/>
</svg>
